<svg width="573" height="289" viewBox="0 0 573 289" fill="none" xmlns="http://www.w3.org/2000/svg">
<path d="M0.29248 211.329H13.0601V282.417H51.2347V287.293H0.29248V211.329Z" fill="#400013"/>
<path d="M70.739 228.716V270.419C70.739 271.873 71.0812 273.242 71.7656 274.525C72.4499 275.766 73.3695 276.878 74.5244 277.862C75.6793 278.803 77.0266 279.551 78.5664 280.107C80.149 280.663 81.8385 280.941 83.635 280.941C84.7898 280.941 86.0303 280.706 87.3562 280.236C88.6822 279.722 89.9653 279.038 91.2057 278.182C92.4461 277.327 93.6224 276.322 94.7345 275.167C95.8466 274.012 96.7662 272.793 97.4933 271.51V228.716H109.106V287.293H97.4933V276.322C96.4668 277.99 95.1836 279.573 93.6438 281.07C92.104 282.567 90.4144 283.871 88.5752 284.983C86.7788 286.095 84.9182 286.972 82.9934 287.614C81.1114 288.255 79.3149 288.576 77.604 288.576C75.0377 288.576 72.621 288.106 70.3541 287.165C68.1299 286.181 66.1837 284.876 64.5156 283.251C62.8475 281.583 61.5215 279.658 60.5378 277.477C59.5968 275.252 59.1263 272.9 59.1263 270.419V228.716H70.739Z" fill="#400013"/>
<path d="M122.772 228.716H134.385V239.43C137.935 235.41 141.613 232.416 145.42 230.448C149.227 228.481 153.119 227.497 157.097 227.497C159.15 227.497 161.053 227.967 162.807 228.908C164.604 229.849 166.165 231.133 167.491 232.758C168.859 234.34 169.929 236.222 170.699 238.404C171.469 240.542 171.854 242.831 171.854 245.269V287.293H160.177V247.194C160.177 243.301 159.3 240.371 157.546 238.404C155.835 236.436 153.611 235.453 150.874 235.453C149.633 235.453 148.329 235.666 146.96 236.094C145.591 236.479 144.18 237.035 142.725 237.762C141.314 238.489 139.902 239.366 138.491 240.393C137.079 241.419 135.711 242.574 134.385 243.857V287.293H122.772V228.716Z" fill="#400013"/>
<path d="M228.442 287.293H216.765V279.273C215.396 280.342 214.049 281.433 212.723 282.545C211.397 283.615 209.964 284.598 208.424 285.497C206.884 286.395 205.173 287.122 203.291 287.678C201.409 288.277 199.228 288.576 196.747 288.576C194.438 288.576 192.342 288.191 190.46 287.421C188.62 286.694 187.059 285.689 185.776 284.406C184.493 283.08 183.488 281.519 182.761 279.722C182.076 277.926 181.734 276.001 181.734 273.948C181.734 271.424 182.226 269.157 183.21 267.147C184.236 265.137 185.605 263.34 187.316 261.758C189.07 260.132 191.08 258.699 193.347 257.459C195.657 256.219 198.116 255.107 200.725 254.123C203.334 253.139 206.008 252.284 208.745 251.556C211.482 250.787 214.156 250.059 216.765 249.375V245.718C216.765 243.066 216.487 240.842 215.931 239.045C215.418 237.206 214.669 235.731 213.685 234.618C212.701 233.464 211.504 232.651 210.092 232.18C208.724 231.667 207.162 231.411 205.409 231.411C203.441 231.411 201.837 231.667 200.597 232.18C199.356 232.694 198.373 233.378 197.645 234.234C196.961 235.046 196.491 235.987 196.234 237.057C195.977 238.083 195.849 239.152 195.849 240.264C195.849 241.291 195.763 242.275 195.592 243.216C195.421 244.157 195.122 244.991 194.694 245.718C194.266 246.445 193.668 247.023 192.898 247.45C192.171 247.878 191.23 248.092 190.075 248.092C188.278 248.092 186.803 247.45 185.648 246.167C184.536 244.841 183.98 243.194 183.98 241.227C183.98 239.302 184.6 237.506 185.84 235.838C187.123 234.127 188.834 232.672 190.973 231.475C193.154 230.234 195.678 229.272 198.544 228.588C201.409 227.86 204.425 227.497 207.59 227.497C211.44 227.497 214.69 227.882 217.342 228.652C219.994 229.379 222.133 230.427 223.758 231.795C225.426 233.121 226.624 234.747 227.351 236.672C228.078 238.596 228.442 240.735 228.442 243.087V287.293ZM216.765 253.16C214.241 253.93 211.611 254.914 208.873 256.112C206.136 257.267 203.612 258.593 201.303 260.09C198.993 261.587 197.089 263.255 195.592 265.094C194.095 266.89 193.347 268.815 193.347 270.868C193.347 272.28 193.603 273.627 194.117 274.91C194.673 276.193 195.379 277.327 196.234 278.311C197.132 279.252 198.137 280.022 199.249 280.62C200.404 281.177 201.602 281.455 202.842 281.455C204.168 281.455 205.409 281.283 206.564 280.941C207.761 280.599 208.916 280.15 210.028 279.594C211.14 278.995 212.252 278.311 213.364 277.541C214.477 276.728 215.61 275.894 216.765 275.039V253.16Z" fill="#400013"/>
<path d="M279.512 211.329H292.537L322.114 269.649H322.691L351.691 211.329H364.523V287.293H351.691V225.059H351.242L320.125 287.293H317.494L285.992 225.508H285.094V287.293H279.512V211.329Z" fill="#400013"/>
<path d="M409.498 288.576C405.007 288.576 400.858 287.806 397.052 286.266C393.288 284.684 390.015 282.545 387.235 279.851C384.498 277.113 382.359 273.948 380.819 270.355C379.28 266.719 378.51 262.848 378.51 258.742C378.51 254.422 379.28 250.38 380.819 246.616C382.359 242.809 384.498 239.495 387.235 236.672C390.015 233.849 393.288 231.624 397.052 229.999C400.858 228.331 405.007 227.497 409.498 227.497C413.947 227.497 418.053 228.245 421.817 229.742C425.624 231.239 428.896 233.293 431.633 235.902C434.413 238.511 436.573 241.569 438.113 245.076C439.653 248.541 440.423 252.284 440.423 256.304C440.423 260.753 439.653 264.944 438.113 268.879C436.573 272.772 434.413 276.172 431.633 279.081C428.896 281.989 425.624 284.299 421.817 286.01C418.053 287.721 413.947 288.576 409.498 288.576ZM411.68 284.213C413.99 284.213 416.085 283.636 417.967 282.481C419.892 281.283 421.539 279.701 422.908 277.733C424.319 275.723 425.41 273.413 426.18 270.804C426.95 268.152 427.335 265.351 427.335 262.399C427.335 258.165 426.971 254.187 426.244 250.466C425.517 246.745 424.341 243.515 422.715 240.778C421.09 237.998 418.951 235.816 416.299 234.234C413.69 232.651 410.482 231.86 406.675 231.86C404.708 231.86 402.804 232.437 400.965 233.592C399.169 234.704 397.565 236.244 396.153 238.211C394.742 240.179 393.608 242.467 392.753 245.076C391.94 247.686 391.534 250.466 391.534 253.417C391.534 257.694 391.983 261.715 392.881 265.479C393.779 269.2 395.084 272.451 396.795 275.231C398.549 278.011 400.666 280.214 403.147 281.839C405.67 283.422 408.515 284.213 411.68 284.213Z" fill="#400013"/>
<path d="M493.098 281.583C491.772 282.652 490.317 283.615 488.735 284.47C487.152 285.325 485.527 286.074 483.859 286.716C482.191 287.314 480.48 287.763 478.726 288.063C477.015 288.405 475.347 288.576 473.722 288.576C470.257 288.576 467.028 287.785 464.034 286.202C461.039 284.577 458.409 282.417 456.142 279.722C453.918 276.985 452.164 273.82 450.881 270.227C449.598 266.591 448.956 262.763 448.956 258.742C448.956 254.764 449.769 250.915 451.394 247.194C453.02 243.43 455.222 240.093 458.003 237.185C460.783 234.234 464.034 231.881 467.755 230.127C471.476 228.374 475.454 227.497 479.688 227.497C482.554 227.497 485.056 228.01 487.195 229.037C489.334 230.02 491.301 231.325 493.098 232.95V202.026L501.246 198.754H504.646V288.576H493.098V281.583ZM493.098 247.322C493.098 245.012 492.67 242.916 491.814 241.034C490.959 239.11 489.825 237.484 488.414 236.158C487.045 234.79 485.484 233.742 483.73 233.015C482.019 232.245 480.266 231.86 478.469 231.86C476.16 231.86 473.978 232.437 471.925 233.592C469.915 234.747 468.161 236.372 466.664 238.468C465.167 240.564 463.969 243.066 463.071 245.975C462.216 248.84 461.788 252.006 461.788 255.47C461.788 259.191 462.258 262.677 463.199 265.928C464.183 269.179 465.509 272.023 467.177 274.461C468.845 276.856 470.792 278.76 473.016 280.171C475.283 281.54 477.699 282.224 480.266 282.224C481.463 282.224 482.661 282.075 483.859 281.775C485.099 281.433 486.275 280.984 487.387 280.428C488.499 279.872 489.547 279.23 490.531 278.503C491.515 277.776 492.37 277.006 493.098 276.193V247.322Z" fill="#400013"/>
<path d="M544.361 288.576C540.383 288.576 536.661 287.849 533.197 286.395C529.732 284.898 526.695 282.866 524.086 280.3C521.477 277.733 519.424 274.739 517.927 271.317C516.43 267.853 515.681 264.153 515.681 260.218C515.681 255.513 516.366 251.171 517.735 247.194C519.103 243.173 521.049 239.708 523.573 236.8C526.097 233.891 529.112 231.624 532.619 229.999C536.17 228.331 540.126 227.497 544.489 227.497C548.338 227.497 551.846 228.181 555.011 229.55C558.219 230.876 560.956 232.694 563.223 235.003C565.533 237.27 567.329 239.901 568.613 242.895C569.896 245.846 570.537 248.947 570.537 252.198H526.845C526.845 256.133 527.337 259.79 528.321 263.169C529.347 266.505 530.78 269.393 532.619 271.831C534.459 274.269 536.64 276.193 539.164 277.605C541.687 278.974 544.467 279.658 547.504 279.658C550.028 279.658 552.445 279.252 554.754 278.439C557.107 277.626 559.224 276.557 561.106 275.231C563.031 273.862 564.656 272.323 565.982 270.612C567.308 268.901 568.249 267.126 568.805 265.286L572.077 266.762C571.222 269.756 569.874 272.579 568.035 275.231C566.196 277.883 564.015 280.193 561.491 282.16C559.01 284.128 556.294 285.689 553.343 286.844C550.391 287.999 547.397 288.576 544.361 288.576ZM555.973 247.514C555.973 245.29 555.567 243.237 554.754 241.355C553.984 239.43 552.915 237.762 551.546 236.351C550.178 234.939 548.574 233.849 546.734 233.079C544.895 232.266 542.928 231.86 540.832 231.86C539.078 231.86 537.389 232.266 535.763 233.079C534.181 233.849 532.769 234.939 531.529 236.351C530.288 237.762 529.24 239.43 528.385 241.355C527.572 243.237 527.08 245.29 526.909 247.514H555.973Z" fill="#400013"/>
<path d="M212.319 168.799C225.896 165.551 231.924 140.142 233.24 127.844C233.24 143.689 245.27 162.055 251.285 169.258L212.319 168.799Z" fill="#800020"/>
<path d="M150.237 3.60123L146.628 0H191.739L188.13 2.7977V165.657L191.739 168.799H146.628L150.237 165.657V3.60123Z" fill="#800020"/>
<path d="M229.632 3.60123L224.218 0H270.113L312.635 127.844L327.07 108.037L307.222 169.258H285.569L229.632 3.60123Z" fill="#800020"/>
<path d="M392.029 0H363.159L350.528 39.6135V165.657L346.919 169.258H393.834L388.421 165.657V3.60123L392.029 0Z" fill="#800020"/>
</svg>
